<?xml version="1.0" standalone="no"?>
<!DOCTYPE svg PUBLIC "-//W3C//DTD SVG 20010904//EN"
 "http://www.w3.org/TR/2001/REC-SVG-20010904/DTD/svg10.dtd">
<svg version="1.0" xmlns="http://www.w3.org/2000/svg"
 width="2224.000000pt" height="2224.000000pt" viewBox="0 0 2224.000000 2224.000000"
 preserveAspectRatio="xMidYMid meet">
<metadata>
Created by potrace 1.14, written by Peter Selinger 2001-2017
</metadata>
<g transform="translate(0.000000,2224.000000) scale(0.100000,-0.100000)"
fill="#000000" stroke="none">
<path d="M7646 17312 c-2 -4 -41 -7 -85 -7 -51 1 -81 -3 -81 -9 0 -7 -22 -10
-60 -8 -42 3 -60 0 -60 -8 0 -7 -8 -10 -19 -7 -11 3 -29 -1 -40 -9 -10 -8 -26
-11 -35 -8 -9 3 -33 0 -54 -8 -20 -8 -47 -13 -59 -13 -13 1 -20 -2 -16 -8 3
-6 -6 -8 -25 -5 -19 3 -33 0 -36 -8 -3 -7 -16 -11 -30 -10 -14 2 -23 -1 -20
-5 5 -9 -17 -13 -44 -10 -8 1 -20 -3 -28 -10 -7 -6 -20 -9 -28 -6 -8 3 -17 -1
-20 -9 -3 -9 -10 -13 -14 -10 -5 3 -20 -1 -35 -9 -14 -7 -28 -11 -31 -7 -3 3
-14 -3 -25 -12 -13 -12 -20 -14 -23 -5 -3 8 -9 7 -20 -5 -9 -9 -21 -15 -25
-14 -15 4 -73 -21 -73 -32 0 -6 -4 -9 -9 -5 -5 3 -13 0 -16 -6 -4 -5 -13 -8
-20 -5 -7 2 -16 -2 -19 -10 -3 -8 -9 -14 -13 -13 -22 4 -41 -3 -60 -20 -15
-14 -23 -17 -32 -8 -8 8 -11 7 -11 -6 0 -10 -5 -14 -14 -11 -7 3 -16 -2 -20
-11 -3 -9 -11 -13 -17 -9 -6 3 -14 3 -18 -2 -9 -14 -65 -49 -73 -46 -5 1 -8
-3 -8 -8 0 -5 -3 -9 -7 -9 -22 4 -33 -2 -27 -13 5 -8 2 -9 -9 -5 -10 4 -22 -1
-29 -11 -7 -10 -29 -24 -48 -32 -19 -7 -39 -18 -45 -25 -5 -6 -29 -23 -53 -36
-23 -14 -39 -29 -35 -32 3 -4 2 -7 -3 -8 -30 -2 -47 -10 -62 -27 -9 -10 -23
-17 -31 -14 -8 3 -11 0 -7 -7 4 -6 0 -11 -9 -11 -9 0 -13 -5 -10 -11 4 -6 1
-9 -8 -7 -8 2 -27 -10 -41 -25 -14 -15 -30 -26 -34 -23 -5 3 -16 -6 -26 -19
-10 -14 -23 -22 -29 -18 -6 3 -7 1 -3 -5 4 -7 2 -12 -4 -12 -6 0 -8 -5 -4 -12
4 -6 3 -8 -3 -5 -16 10 -108 -65 -95 -77 3 -3 -7 -6 -23 -6 -16 0 -26 -3 -23
-6 7 -7 -44 -60 -54 -56 -5 1 -8 -2 -8 -6 0 -15 -37 -52 -44 -45 -3 3 -6 2 -6
-4 0 -6 -37 -49 -82 -96 -94 -96 -173 -186 -173 -196 0 -3 -20 -25 -44 -49
-24 -24 -41 -45 -38 -48 3 -3 -6 -16 -20 -30 -13 -13 -22 -28 -20 -32 3 -4 -1
-13 -9 -20 -8 -7 -14 -10 -14 -7 0 3 -6 0 -14 -7 -8 -7 -12 -16 -10 -20 3 -4
-4 -16 -16 -28 -11 -11 -20 -27 -20 -36 0 -9 -9 -18 -20 -21 -15 -4 -18 -9
-10 -18 7 -8 3 -15 -14 -25 -16 -8 -23 -19 -21 -32 2 -10 0 -16 -5 -13 -6 4
-15 -7 -22 -22 -7 -15 -17 -31 -22 -34 -5 -4 -6 -11 -2 -17 3 -5 0 -12 -8 -15
-14 -6 -56 -84 -56 -105 0 -7 -7 -12 -15 -12 -9 0 -12 -6 -9 -15 4 -8 1 -15
-6 -15 -6 0 -8 -4 -5 -10 3 -5 1 -10 -5 -10 -6 0 -9 -4 -5 -9 3 -5 1 -12 -5
-16 -6 -4 -8 -11 -5 -16 4 -5 1 -9 -4 -9 -6 0 -11 -9 -11 -21 0 -11 -4 -17
-10 -14 -5 3 -10 1 -10 -4 0 -19 -34 -91 -43 -91 -4 0 -6 -4 -2 -9 3 -5 -2
-16 -10 -25 -8 -8 -15 -19 -14 -23 4 -16 -13 -63 -23 -63 -6 0 -8 -11 -6 -24
3 -15 0 -27 -8 -30 -7 -3 -16 -21 -20 -40 -3 -20 -10 -36 -15 -36 -5 0 -9 -11
-9 -23 0 -13 -3 -27 -7 -31 -4 -3 -8 -16 -10 -28 -2 -12 -7 -25 -12 -28 -4 -3
-7 -14 -5 -25 2 -11 -2 -23 -8 -26 -10 -7 -15 -27 -20 -94 -2 -16 -7 -33 -13
-37 -5 -4 -10 -18 -11 -30 -1 -13 -6 -34 -11 -48 -8 -18 -7 -27 1 -32 8 -5 7
-8 -2 -8 -7 0 -10 -4 -7 -10 3 -5 1 -10 -4 -10 -6 0 -11 -21 -11 -48 0 -27 -3
-52 -7 -56 -5 -4 -8 -40 -9 -79 0 -40 -4 -79 -8 -87 -8 -19 -2 -710 8 -795 13
-124 18 -155 26 -155 4 0 7 -14 6 -31 -1 -17 3 -33 10 -36 7 -2 11 -14 8 -26
-2 -11 1 -24 7 -27 5 -4 11 -18 11 -31 1 -13 6 -29 11 -36 5 -7 6 -16 3 -22
-4 -5 0 -15 7 -23 8 -7 13 -21 11 -30 -1 -10 4 -22 11 -28 7 -6 11 -20 8 -30
-3 -11 0 -20 6 -20 6 0 11 -8 11 -18 0 -24 23 -72 34 -72 5 0 3 -7 -4 -15 -7
-8 -8 -15 -3 -15 12 0 38 -54 47 -98 4 -17 11 -32 15 -32 4 0 14 -19 21 -42 8
-24 18 -49 23 -55 5 -7 6 -13 1 -13 -5 0 -4 -4 2 -8 6 -4 21 -31 34 -59 13
-29 27 -53 30 -53 4 0 5 -12 2 -26 -3 -19 -1 -25 7 -20 7 5 11 0 11 -13 0 -12
5 -21 11 -21 6 0 9 -6 6 -14 -3 -8 1 -17 9 -20 8 -3 14 -9 13 -13 -2 -16 14
-53 23 -53 6 0 7 -7 4 -15 -3 -9 1 -18 9 -21 8 -4 22 -23 31 -43 9 -20 20 -43
24 -51 5 -8 23 -43 41 -77 18 -35 36 -63 41 -63 4 0 8 -9 8 -20 0 -11 5 -20
10 -20 6 0 10 -7 10 -15 0 -8 5 -15 11 -15 5 0 8 -4 4 -10 -3 -5 4 -19 15 -30
11 -11 18 -25 15 -30 -4 -6 1 -10 9 -10 9 0 13 -6 10 -14 -3 -8 5 -21 18 -30
12 -9 19 -16 15 -16 -11 0 24 -62 42 -76 8 -6 11 -16 8 -21 -4 -6 0 -14 9 -17
8 -3 13 -10 10 -14 -3 -5 4 -15 15 -22 10 -8 19 -22 19 -32 0 -10 5 -18 11
-18 5 0 8 -4 5 -8 -3 -5 4 -16 15 -26 12 -9 18 -24 15 -32 -3 -8 1 -14 10 -14
8 0 20 -12 27 -27 6 -16 17 -34 24 -41 7 -8 11 -18 8 -23 -4 -5 0 -9 8 -9 8 0
20 -13 26 -30 5 -16 15 -30 20 -30 6 0 11 -6 11 -13 0 -7 9 -23 20 -35 11 -12
20 -27 20 -34 0 -7 9 -19 20 -26 12 -7 18 -17 15 -22 -3 -5 4 -15 15 -23 11
-7 18 -16 15 -19 -3 -3 4 -13 15 -23 11 -10 20 -24 20 -31 0 -7 9 -22 21 -33
12 -11 19 -24 15 -29 -3 -5 6 -15 19 -22 14 -7 25 -19 25 -27 0 -7 9 -22 21
-34 11 -11 18 -27 15 -35 -3 -8 -2 -13 3 -10 4 3 16 -3 26 -14 10 -11 15 -20
11 -20 -7 0 20 -36 69 -92 8 -10 15 -23 15 -29 0 -14 39 -49 54 -49 7 0 7 -3
-1 -8 -14 -9 3 -35 30 -45 9 -3 17 -14 17 -23 0 -9 10 -25 22 -35 11 -11 17
-19 13 -19 -5 0 0 -7 11 -16 10 -8 12 -12 4 -8 -8 4 0 -6 18 -23 17 -16 32
-38 32 -47 0 -9 5 -14 10 -11 6 3 10 -1 10 -10 0 -10 5 -13 12 -9 7 5 9 2 5
-8 -3 -10 7 -27 29 -46 19 -17 34 -35 34 -41 0 -7 14 -25 30 -41 17 -17 29
-34 27 -38 -4 -8 29 -43 35 -36 3 2 11 -8 19 -23 14 -28 32 -53 57 -78 6 -8
12 -17 12 -22 0 -4 14 -19 30 -33 17 -14 30 -30 30 -37 0 -7 15 -28 34 -46 18
-17 37 -42 41 -55 4 -13 9 -21 12 -18 7 7 33 -20 33 -34 0 -6 5 -8 12 -4 7 4
8 3 4 -5 -4 -6 7 -25 28 -44 19 -18 36 -40 38 -48 2 -8 20 -31 40 -53 21 -21
35 -43 31 -50 -3 -6 -3 -8 1 -5 8 7 66 -47 66 -62 0 -5 5 -9 10 -9 6 0 10 -5
10 -12 0 -6 14 -24 31 -39 17 -15 32 -35 34 -46 1 -10 8 -17 14 -15 6 1 11 -2
11 -7 0 -13 47 -60 54 -54 3 4 9 -8 12 -25 4 -18 14 -34 25 -37 11 -4 19 -12
19 -18 0 -7 9 -18 20 -25 11 -7 20 -18 20 -25 0 -8 15 -26 34 -42 19 -16 33
-32 30 -36 -2 -4 5 -10 16 -14 11 -3 20 -14 20 -23 0 -9 23 -37 50 -62 28 -24
50 -50 50 -57 0 -13 57 -73 70 -73 4 0 15 -16 24 -35 10 -19 28 -42 41 -51 14
-9 23 -20 20 -24 -2 -4 7 -13 20 -20 14 -7 25 -20 25 -27 0 -8 5 -11 11 -7 7
4 10 1 7 -7 -3 -8 22 -40 56 -74 34 -34 69 -74 78 -90 10 -17 22 -29 27 -28 5
2 13 -6 16 -17 4 -11 11 -18 16 -15 5 4 9 -1 9 -9 0 -9 7 -16 16 -16 8 0 12
-4 9 -10 -3 -5 -1 -10 5 -10 6 0 8 -5 5 -10 -3 -6 1 -13 9 -16 9 -3 16 -13 16
-21 0 -8 3 -12 8 -10 9 5 42 -30 34 -37 -3 -3 1 -6 8 -6 13 0 60 -49 60 -63 0
-4 34 -41 75 -82 41 -42 75 -79 75 -83 0 -12 58 -72 69 -72 6 0 11 -3 11 -8 0
-4 20 -29 45 -55 25 -27 45 -55 45 -63 0 -8 4 -14 9 -14 12 0 81 -69 81 -82 0
-5 5 -6 11 -3 6 4 13 -2 16 -13 2 -11 14 -23 25 -25 11 -3 17 -10 13 -16 -3
-6 1 -11 10 -11 9 0 13 -4 10 -10 -3 -5 48 -64 115 -130 66 -65 120 -124 120
-129 0 -5 10 -17 22 -25 12 -9 19 -16 15 -16 -4 0 11 -18 33 -40 22 -22 45
-40 50 -40 5 0 11 -8 15 -17 3 -10 21 -29 39 -43 19 -14 33 -27 31 -30 -2 -3
10 -16 26 -29 16 -13 27 -27 24 -31 -3 -5 10 -21 30 -37 19 -15 35 -34 35 -42
0 -8 3 -12 6 -8 8 7 34 -17 34 -32 0 -6 4 -11 10 -11 11 0 70 -56 70 -67 0
-10 42 -38 53 -35 5 1 6 -2 2 -8 -3 -5 -1 -10 5 -10 6 0 8 -4 5 -10 -3 -5 1
-10 9 -10 8 0 18 -9 21 -21 8 -23 366 -385 378 -381 4 1 7 -3 7 -8 0 -6 16
-25 35 -44 19 -18 32 -36 29 -39 -7 -6 196 -207 209 -207 6 0 8 -3 5 -6 -8 -7
36 -54 51 -54 6 0 11 -3 11 -8 0 -4 34 -42 75 -84 41 -42 75 -74 75 -70 0 4 8
-5 18 -21 10 -15 22 -24 25 -20 4 3 7 2 7 -4 0 -14 68 -82 74 -75 3 3 6 1 6
-4 0 -14 67 -83 74 -76 3 3 6 -3 6 -13 0 -10 3 -16 6 -13 6 6 54 -38 54 -50 1
-4 19 -20 40 -37 21 -16 39 -36 40 -43 0 -7 4 -11 8 -8 5 3 15 -6 22 -19 7
-13 17 -22 22 -19 4 3 8 0 8 -6 0 -14 26 -41 33 -34 3 3 8 -3 11 -13 4 -10 22
-29 41 -43 19 -14 35 -31 35 -38 0 -7 5 -10 10 -7 6 3 10 -1 10 -10 0 -9 4
-14 9 -10 5 3 12 -4 16 -15 3 -11 12 -20 19 -20 7 0 19 -11 26 -25 7 -13 17
-22 22 -19 4 3 8 -2 8 -11 0 -9 5 -13 10 -10 6 3 10 0 10 -7 1 -7 19 -26 40
-43 21 -16 39 -33 40 -37 0 -9 50 -59 50 -51 0 3 9 -5 20 -18 10 -13 19 -20
20 -15 0 4 29 -21 65 -58 36 -36 70 -66 76 -66 5 0 7 -5 4 -10 -3 -6 5 -14 19
-19 29 -12 67 -42 61 -50 -2 -3 34 -6 78 -6 59 0 85 4 93 14 6 8 15 11 20 8 6
-3 19 8 29 24 11 16 28 32 37 35 9 3 20 14 23 25 4 10 13 19 21 19 8 0 14 4
14 10 0 13 47 59 54 53 3 -3 3 5 1 17 -2 12 -2 20 1 17 3 -3 18 8 33 24 15 16
31 25 35 21 4 -4 6 -2 4 3 -1 6 5 21 15 35 9 13 17 21 17 17 0 -4 11 3 24 15
13 13 22 26 19 30 -5 9 83 98 97 98 6 0 9 4 6 9 -3 5 6 17 20 27 14 11 32 34
41 51 8 18 19 30 24 27 5 -3 9 -1 9 4 0 5 9 19 20 32 11 13 20 20 20 15 0 -4
9 4 20 18 11 14 20 30 20 36 0 5 9 16 20 24 11 8 17 17 13 20 -3 4 -2 7 4 7 5
0 24 13 41 30 18 17 28 30 23 30 -5 0 14 24 42 53 27 28 54 51 58 49 5 -1 9 1
8 5 -3 20 15 53 32 58 10 4 19 10 19 14 0 4 13 20 28 37 16 16 37 44 47 61 11
18 25 33 32 33 7 0 13 7 13 17 0 9 3 14 6 10 8 -7 34 17 34 32 0 6 25 36 56
67 30 31 53 58 50 61 -7 7 20 33 34 33 6 0 9 3 7 8 -5 9 30 42 37 35 3 -4 6 3
6 15 0 12 5 22 10 22 6 0 10 7 10 15 0 8 6 15 13 15 6 1 26 19 42 41 17 23 49
60 72 84 23 24 39 45 37 48 -2 2 15 24 38 49 55 59 88 98 81 98 -2 0 10 12 27
26 17 15 29 29 26 31 -3 3 15 25 40 49 25 25 43 48 41 52 -5 10 60 71 69 64 4
-4 4 3 1 16 -4 16 -1 22 11 22 8 0 12 3 9 7 -4 3 2 12 13 20 11 8 20 19 20 25
0 6 11 21 25 34 14 13 25 28 25 35 0 6 8 18 18 25 9 7 18 17 18 23 1 6 2 16 3
21 0 6 8 10 16 10 8 0 14 3 13 8 -4 10 26 72 34 72 4 0 5 7 2 15 -4 8 -2 15 4
15 13 0 12 131 -1 148 -5 6 -6 12 -2 12 4 0 -4 13 -17 29 -52 66 -73 95 -70
103 1 4 -3 8 -9 8 -6 0 -8 7 -5 16 3 8 2 12 -3 9 -9 -5 -27 32 -23 48 1 4 -2
7 -7 7 -6 0 -8 9 -6 20 2 11 1 20 -3 20 -28 0 -40 202 -16 249 10 20 11 27 1
33 -9 6 -9 8 1 8 7 0 10 5 7 10 -3 6 -1 10 4 10 6 0 10 3 9 8 -2 10 35 86 45
90 4 2 7 13 7 23 0 11 4 18 9 15 8 -5 22 16 25 35 1 4 32 37 70 74 37 37 69
73 70 81 1 7 11 21 22 31 10 10 21 27 22 38 2 11 7 25 11 30 12 16 6 133 -9
149 -10 13 -10 16 1 16 9 0 10 3 4 8 -6 4 -10 24 -9 45 1 25 -3 40 -12 44 -8
3 -11 10 -7 16 10 17 9 77 -2 80 -11 4 -16 235 -6 252 3 6 7 24 8 40 4 49 6
55 15 55 5 0 6 11 4 25 -3 14 1 31 8 38 7 6 11 18 8 26 -3 8 3 20 14 28 13 10
14 13 3 13 -10 1 -9 3 4 11 9 6 15 14 13 18 -3 4 4 17 14 29 11 12 20 28 20
37 0 9 3 14 8 12 4 -2 15 4 25 15 9 10 14 18 10 18 -5 1 3 7 17 15 14 8 22 14
18 15 -5 0 0 8 10 18 9 11 20 18 23 16 3 -2 12 6 20 17 24 35 54 64 70 67 7 2
22 13 32 25 10 12 16 16 12 9 -6 -11 -3 -11 14 0 12 7 21 16 21 20 0 4 7 4 17
1 11 -4 14 -3 9 5 -5 8 0 12 13 12 11 0 22 4 26 9 3 6 14 8 25 6 11 -2 20 -1
20 3 0 9 73 32 103 32 13 0 27 3 31 7 11 11 286 12 286 1 0 -4 38 -8 83 -8 46
0 87 -3 91 -7 4 -5 34 -9 67 -9 33 -1 58 1 55 3 -6 7 75 83 83 79 9 -6 31 21
24 28 -4 3 1 6 10 6 10 0 17 5 17 10 0 6 11 15 25 20 14 5 25 14 25 20 0 6 5
8 10 5 6 -3 10 -3 10 2 0 4 15 14 33 22 17 7 41 19 52 26 11 7 22 12 25 12 3
0 23 9 45 20 22 11 46 18 54 15 8 -3 11 0 7 7 -5 7 6 11 34 11 28 0 39 4 34
11 -4 7 -1 10 7 7 8 -3 20 1 27 9 8 7 18 11 22 8 5 -3 14 4 20 15 6 11 15 18
21 15 5 -4 13 5 18 18 5 13 17 27 27 31 9 4 14 9 11 12 -3 3 -1 18 5 33 14 35
17 231 3 245 -5 6 -9 40 -9 76 1 36 -3 70 -8 77 -5 7 -6 18 -2 25 4 7 9 35 9
63 1 28 5 58 10 65 5 8 10 23 11 34 0 11 6 22 12 24 7 2 12 8 12 13 0 6 -4 7
-10 4 -6 -3 -7 1 -4 9 3 9 10 16 14 16 4 0 13 13 20 29 6 16 18 32 26 35 8 3
14 14 14 24 0 10 11 25 25 32 13 7 22 17 20 21 -3 4 4 10 15 14 11 3 26 12 33
18 20 18 77 47 93 47 8 0 14 5 14 10 0 6 11 10 25 10 14 0 25 4 25 8 0 10 258
9 283 -1 39 -16 52 -20 60 -18 4 0 10 -6 13 -14 3 -8 10 -12 15 -9 5 3 16 -2
25 -10 9 -9 20 -14 25 -11 5 4 9 1 9 -5 0 -7 6 -10 13 -7 6 2 18 -2 25 -9 7
-8 10 -14 7 -14 -3 0 0 -6 7 -14 7 -8 16 -12 20 -10 4 3 15 -4 25 -15 10 -11
25 -21 33 -23 8 -2 19 -9 25 -16 5 -7 21 -14 34 -17 14 -2 27 -8 30 -12 11
-15 125 -9 138 7 7 8 13 11 13 6 0 -5 9 -1 20 9 11 10 20 14 20 10 0 -5 9 1
21 13 11 12 24 20 30 17 5 -4 9 1 9 10 0 9 3 14 8 12 8 -5 132 120 125 126 -2
3 8 8 22 11 14 4 23 11 20 16 -3 6 -1 10 5 10 6 0 8 4 5 10 -3 5 26 41 65 79
38 38 70 73 70 78 0 13 77 92 84 86 3 -4 6 2 6 12 0 10 16 33 35 52 33 32 40
45 35 68 -1 6 1 7 5 4 8 -9 47 29 64 63 8 15 22 30 32 33 10 4 16 12 13 20 -3
8 4 20 15 27 12 7 21 19 21 26 0 8 5 10 12 6 8 -5 9 -2 5 9 -3 10 -2 17 3 17
6 0 18 16 27 35 9 19 22 35 30 35 7 0 10 6 7 13 -2 7 4 22 16 32 11 10 20 24
20 30 0 7 7 16 16 19 9 3 14 12 12 18 -3 7 6 21 18 31 13 10 21 24 18 31 -3 7
2 16 11 20 9 3 14 10 11 14 -3 5 3 14 14 22 10 7 16 19 13 27 -3 7 0 13 6 13
6 0 11 6 11 14 0 7 10 21 23 30 12 9 16 14 9 10 -8 -3 -3 11 10 32 23 36 37
67 38 79 0 3 11 17 24 32 14 15 23 30 20 35 -3 4 1 18 8 30 7 13 11 26 10 31
-1 4 3 7 9 7 5 0 7 5 4 10 -3 6 -2 10 3 10 8 0 14 13 22 48 1 4 8 14 16 23 8
9 11 19 7 22 -3 4 0 7 7 7 7 0 10 3 7 7 -4 3 0 14 9 24 9 10 14 27 11 38 -3
11 -1 19 5 18 10 -2 38 69 30 78 -3 3 0 5 6 5 7 0 12 9 12 20 0 11 5 20 10 20
6 0 8 11 6 24 -2 14 0 26 6 28 10 4 17 24 20 56 1 6 5 12 10 12 5 0 6 5 3 10
-4 6 -1 17 5 25 7 8 10 15 6 15 -4 0 0 10 9 23 8 13 12 27 9 30 -4 4 -1 14 6
22 7 9 13 29 12 45 0 16 4 32 9 35 5 4 9 19 9 36 0 16 4 29 9 29 5 0 8 17 7
38 -1 20 4 43 12 51 8 9 9 17 3 25 -6 7 -6 17 -1 26 5 8 6 18 3 24 -3 5 2 15
12 23 11 7 15 13 9 13 -10 0 -9 119 2 158 4 15 8 160 9 322 1 230 -1 301 -12
323 -9 17 -10 27 -3 27 7 0 8 6 1 18 -7 13 -6 23 1 30 9 9 9 12 0 12 -9 0 -10
5 -4 18 10 18 0 56 -18 67 -6 4 -7 12 -2 18 11 16 9 67 -5 92 -6 11 -10 32 -8
47 2 16 -1 30 -6 34 -5 3 -9 23 -9 45 0 21 -4 39 -9 39 -5 0 -8 11 -6 25 1 15
-3 25 -11 25 -8 0 -11 10 -10 28 2 15 -1 36 -7 47 -6 11 -12 22 -12 25 -1 4
-22 74 -30 100 -1 3 -5 13 -9 22 -4 9 -9 22 -10 30 -1 7 -10 27 -19 45 -10 18
-16 36 -15 40 1 4 -3 17 -9 28 -6 11 -12 25 -13 30 -5 25 -36 85 -43 85 -4 0
-5 5 -2 11 7 10 -33 101 -48 107 -4 2 -5 8 -1 13 3 5 0 9 -6 9 -6 0 -8 5 -5
10 3 6 1 10 -4 10 -6 0 -11 8 -11 18 0 10 -6 24 -12 31 -7 6 -14 15 -14 19 -5
26 -18 52 -25 52 -5 0 -9 7 -9 15 0 9 -9 25 -20 37 -10 12 -17 25 -14 30 3 4
1 8 -4 8 -6 0 -13 11 -16 25 -4 14 -13 25 -22 25 -8 0 -13 4 -9 9 3 5 1 12 -5
16 -5 3 -10 15 -10 27 0 12 -8 22 -21 25 -11 3 -18 11 -15 19 3 7 -6 22 -19
32 -17 13 -21 22 -13 30 7 7 4 12 -11 17 -12 3 -21 13 -21 22 0 16 -36 53 -52
53 -5 0 -7 4 -4 9 8 13 -4 42 -15 35 -5 -3 -9 1 -9 10 0 8 -4 16 -8 18 -4 2
-18 18 -31 36 -12 18 -27 29 -33 26 -7 -4 -8 -2 -4 4 4 7 3 12 -2 12 -10 0
-25 38 -22 55 1 6 -1 7 -5 3 -8 -8 -46 23 -39 33 2 4 -5 10 -15 14 -11 3 -30
22 -41 41 -12 18 -26 34 -31 34 -5 0 -9 5 -9 11 0 14 -26 40 -33 33 -3 -3 -8
3 -11 14 -4 10 -18 25 -31 32 -14 7 -25 17 -25 21 0 10 -81 89 -92 89 -5 0
-36 27 -69 60 -33 33 -63 60 -68 60 -4 0 -24 15 -43 34 -20 19 -39 32 -42 29
-3 -4 -6 -1 -6 5 0 7 -7 12 -16 12 -8 0 -13 4 -10 9 5 7 -15 22 -34 25 -3 1
-19 13 -35 29 -16 15 -33 27 -36 27 -3 0 -16 9 -29 20 -12 11 -26 18 -29 15
-4 -2 -14 5 -21 16 -8 10 -20 19 -27 19 -6 0 -18 9 -26 20 -8 11 -17 17 -21
13 -3 -4 -15 3 -27 15 -11 13 -24 20 -30 17 -5 -4 -9 -2 -9 3 0 8 -27 21 -53
26 -5 0 -15 9 -22 20 -9 11 -20 16 -30 12 -9 -3 -13 -2 -10 4 6 9 -7 14 -21 8
-3 -2 -10 5 -15 14 -5 9 -23 19 -39 23 -17 4 -28 10 -25 15 2 4 -8 10 -24 13
-16 3 -51 20 -80 36 -28 17 -51 27 -51 23 0 -4 -4 -1 -9 7 -5 7 -20 14 -35 14
-14 0 -26 4 -26 9 0 6 -7 8 -15 4 -9 -3 -15 0 -15 9 0 8 -9 15 -19 15 -11 0
-23 5 -26 10 -4 6 -10 8 -15 5 -5 -3 -20 0 -32 7 -13 6 -32 13 -43 15 -10 2
-22 8 -26 15 -4 6 -18 11 -32 11 -14 0 -28 5 -31 12 -2 8 -15 11 -30 8 -14 -3
-33 0 -41 7 -8 6 -19 9 -25 5 -5 -3 -13 0 -16 8 -3 9 -16 14 -30 12 -13 -1
-24 2 -24 6 0 5 -13 9 -29 9 -17 0 -33 5 -36 11 -4 5 -14 8 -23 6 -10 -2 -28
2 -42 8 -14 7 -36 11 -48 10 -13 -1 -26 3 -28 9 -3 7 -22 11 -44 9 -22 -1 -40
2 -40 8 0 5 -33 9 -73 9 -41 0 -77 3 -81 8 -12 12 -896 10 -896 -2 0 -7 -28
-12 -67 -12 -86 -2 -116 -6 -125 -19 -5 -6 -8 -4 -8 4 0 12 -3 12 -17 0 -10
-8 -35 -14 -55 -13 -22 0 -38 -4 -38 -10 0 -6 -12 -12 -27 -13 -76 -6 -95 -9
-101 -19 -4 -5 -17 -9 -29 -8 -13 1 -23 -4 -23 -11 0 -8 -9 -10 -25 -7 -14 2
-25 0 -25 -7 0 -5 -7 -8 -15 -5 -8 4 -15 1 -15 -6 0 -6 -4 -8 -10 -5 -5 3 -10
2 -10 -3 0 -6 -9 -8 -20 -5 -11 3 -20 1 -20 -4 0 -5 -6 -10 -12 -11 -15 -1
-52 -10 -55 -12 -2 -2 -6 -3 -10 -4 -5 -1 -26 -10 -48 -21 -22 -10 -44 -19
-50 -20 -33 -5 -64 -18 -59 -26 3 -5 -4 -9 -15 -9 -11 0 -22 -4 -26 -9 -3 -6
-14 -8 -25 -6 -11 2 -20 1 -20 -3 0 -11 -52 -32 -62 -26 -5 3 -7 0 -6 -7 2 -7
-1 -14 -7 -14 -5 -1 -23 -7 -40 -14 -16 -7 -32 -12 -34 -11 -2 1 -7 -4 -12
-11 -4 -7 -16 -14 -26 -15 -9 -2 -19 -8 -21 -14 -2 -5 -8 -8 -13 -5 -5 4 -18
-3 -30 -14 -12 -11 -26 -18 -30 -15 -4 2 -17 -5 -28 -18 -12 -12 -24 -19 -27
-15 -3 3 -11 2 -18 -3 -60 -49 -74 -59 -80 -53 -3 3 -6 1 -6 -6 0 -8 -7 -11
-15 -7 -9 3 -15 0 -15 -9 0 -8 -3 -14 -7 -13 -9 3 -65 -32 -74 -46 -4 -5 -12
-5 -18 -2 -7 5 -10 2 -9 -6 2 -7 -3 -12 -11 -10 -7 1 -23 -9 -35 -23 -12 -14
-26 -25 -32 -25 -6 0 -19 -9 -29 -20 -10 -11 -24 -20 -32 -20 -7 0 -16 -7 -19
-15 -4 -8 -13 -15 -21 -15 -8 0 -12 -3 -10 -7 5 -9 -26 -41 -31 -33 -2 3 -15
-6 -29 -20 -14 -14 -29 -25 -33 -25 -14 0 -59 -39 -54 -47 3 -4 -2 -8 -11 -8
-9 0 -13 -4 -10 -10 3 -5 -1 -10 -9 -10 -9 0 -16 -5 -16 -10 0 -6 -11 -15 -25
-20 -14 -5 -25 -14 -25 -20 0 -6 -4 -9 -9 -5 -5 3 -12 -3 -15 -13 -4 -10 -18
-25 -31 -32 -14 -7 -25 -19 -25 -26 0 -8 -12 -20 -27 -28 -16 -8 -25 -15 -21
-16 4 0 -13 -19 -37 -41 -25 -23 -45 -47 -45 -55 0 -7 -11 -21 -25 -32 -14
-11 -25 -25 -25 -32 0 -6 -3 -9 -7 -7 -5 3 -14 -1 -21 -9 -7 -8 -10 -14 -6
-14 3 0 1 -6 -5 -13 -6 -8 -8 -17 -4 -20 3 -4 -1 -7 -9 -7 -9 0 -19 -8 -23
-17 -3 -10 -7 -20 -8 -23 -6 -15 -43 -46 -51 -42 -5 3 -7 -5 -4 -16 4 -15 2
-22 -8 -22 -8 0 -14 -6 -14 -14 0 -8 -7 -16 -15 -20 -8 -3 -15 -12 -15 -19 0
-8 -11 -23 -25 -33 -14 -10 -23 -25 -20 -31 2 -7 -5 -17 -15 -23 -11 -6 -20
-17 -20 -24 0 -7 -9 -21 -20 -31 -11 -10 -17 -22 -14 -26 3 -5 1 -9 -4 -9 -4
0 -19 -19 -32 -42 -12 -24 -33 -57 -46 -75 -13 -17 -24 -39 -24 -47 0 -9 -4
-16 -10 -16 -5 0 -9 -3 -9 -7 4 -22 -15 -73 -30 -79 -24 -11 -51 -13 -45 -3 3
5 -2 9 -10 9 -9 0 -16 8 -16 19 0 11 -4 22 -10 26 -5 3 -7 12 -4 19 3 8 1 17
-5 20 -6 4 -8 13 -4 21 3 9 -1 15 -10 15 -16 0 -47 51 -47 77 0 8 -3 12 -7 10
-9 -5 -34 18 -33 30 1 12 -44 82 -52 83 -5 0 -8 8 -8 18 0 9 -9 23 -20 30 -11
7 -20 18 -20 25 0 6 -12 23 -25 36 -14 12 -22 27 -19 32 3 5 1 9 -4 9 -5 0
-22 20 -38 45 -15 25 -32 45 -36 45 -4 0 -21 21 -38 48 -16 26 -30 43 -30 39
0 -13 -30 20 -30 33 0 7 -21 32 -47 57 -27 25 -48 48 -48 51 -1 16 -38 61 -46
56 -5 -3 -9 0 -9 6 0 13 -52 64 -69 68 -6 1 -45 36 -86 77 -42 41 -80 75 -85
75 -12 0 -60 48 -60 61 0 6 -5 7 -11 3 -7 -4 -24 7 -39 24 -15 17 -30 28 -34
24 -4 -4 -13 1 -20 10 -7 9 -18 18 -25 20 -7 2 -29 18 -48 35 -20 18 -39 30
-44 27 -5 -3 -9 2 -9 10 0 14 -12 21 -24 14 -7 -5 -46 35 -41 42 3 5 -4 6 -15
3 -11 -3 -20 0 -20 6 0 6 -7 11 -15 11 -9 0 -21 5 -28 10 -48 41 -62 50 -74
50 -7 0 -13 5 -13 10 0 6 -9 10 -21 10 -11 0 -17 4 -14 10 3 6 -1 7 -9 4 -9
-4 -18 0 -22 9 -3 9 -18 20 -32 26 -15 6 -34 15 -42 20 -8 5 -30 16 -47 23
-18 7 -33 16 -33 20 0 5 -3 7 -7 6 -5 -1 -18 3 -30 10 -13 7 -23 9 -23 5 0 -4
-5 -1 -10 7 -5 8 -15 15 -22 15 -7 1 -12 7 -10 13 2 9 -3 10 -15 4 -21 -11
-46 -5 -38 9 4 5 -1 6 -9 3 -9 -3 -16 -2 -16 3 0 6 -18 16 -40 23 -22 7 -40
17 -40 22 0 5 -6 8 -12 6 -12 -2 -52 10 -103 33 -50 22 -81 32 -92 30 -6 -1
-14 3 -18 9 -3 5 -17 10 -31 10 -13 0 -24 4 -24 9 0 4 -12 7 -27 7 -16 -1 -33
2 -39 7 -7 4 -22 10 -35 12 -12 3 -25 8 -28 12 -3 5 -17 8 -31 7 -14 0 -31 4
-37 9 -7 5 -13 6 -13 2 0 -4 -6 -2 -14 4 -10 8 -16 9 -21 2 -4 -7 -14 -6 -29
4 -14 10 -37 14 -59 11 -20 -2 -37 0 -39 5 -2 5 -25 10 -53 11 -27 2 -56 8
-63 15 -8 7 -19 10 -25 6 -14 -8 -110 -4 -117 6 -3 4 -56 7 -118 6 -63 0 -116
3 -118 7 -7 10 -441 10 -448 0z m6217 -559 c-7 -2 -19 -2 -25 0 -7 3 -2 5 12
5 14 0 19 -2 13 -5z m-5053 -93 c0 -5 -2 -10 -4 -10 -3 0 -8 5 -11 10 -3 6 -1
10 4 10 6 0 11 -4 11 -10z m4707 4 c-3 -3 -12 -4 -19 -1 -8 3 -5 6 6 6 11 1
17 -2 13 -5z m-147 -38 c0 -2 -8 -10 -17 -17 -16 -13 -17 -12 -4 4 13 16 21
21 21 13z m-180 -80 c0 -3 -4 -8 -10 -11 -5 -3 -10 -1 -10 4 0 6 5 11 10 11 6
0 10 -2 10 -4z m-410 -210 c0 -2 -8 -10 -17 -17 -16 -13 -17 -12 -4 4 13 16
21 21 21 13z m-2923 -242 c-3 -3 -12 -4 -19 -1 -8 3 -5 6 6 6 11 1 17 -2 13
-5z m40 -30 c-3 -3 -12 -4 -19 -1 -8 3 -5 6 6 6 11 1 17 -2 13 -5z m2273 -238
c0 -3 -4 -8 -10 -11 -5 -3 -10 -1 -10 4 0 6 5 11 10 11 6 0 10 -2 10 -4z
m-1975 -66 c3 -5 1 -10 -4 -10 -6 0 -11 5 -11 10 0 6 2 10 4 10 3 0 8 -4 11
-10z m1438 -535 c-3 -9 -8 -14 -10 -11 -3 3 -2 9 2 15 9 16 15 13 8 -4z m-37
-63 c-17 -16 -18 -16 -5 5 7 12 15 20 18 17 3 -2 -3 -12 -13 -22z m134 14 c0
-2 -7 -7 -16 -10 -8 -3 -12 -2 -9 4 6 10 25 14 25 6z m-135 -46 c3 -5 1 -10
-4 -10 -6 0 -11 5 -11 10 0 6 2 10 4 10 3 0 8 -4 11 -10z m-18 -40 c-1 -11 -5
-20 -9 -20 -3 0 -7 -8 -7 -17 -1 -40 -5 -53 -14 -53 -5 0 -7 -6 -4 -13 7 -19
-19 -52 -29 -36 -4 7 -2 15 4 17 7 2 12 14 12 27 0 13 5 27 10 30 6 3 10 12
10 20 0 17 18 65 24 65 3 0 4 -9 3 -20z m51 -115 c-3 -3 -9 2 -12 12 -6 14 -5
15 5 6 7 -7 10 -15 7 -18z m-98 -70 c0 -7 -7 -16 -15 -19 -9 -3 -15 -11 -14
-18 1 -7 1 -25 0 -40 -1 -21 -5 -26 -18 -21 -9 4 -12 8 -6 10 6 2 9 13 6 24
-3 10 0 26 7 34 7 8 10 21 7 29 -3 8 -1 17 6 19 16 6 27 -1 27 -18z m57 -20
c0 -8 -4 -12 -9 -9 -5 3 -6 10 -3 15 9 13 12 11 12 -6z m-883 -51 c3 -8 2 -12
-4 -9 -6 3 -10 10 -10 16 0 14 7 11 14 -7z m778 -46 c4 -35 3 -44 -5 -49 -5
-4 -9 -32 -9 -63 0 -30 -4 -53 -9 -51 -4 3 -7 -8 -7 -25 1 -17 -2 -33 -5 -36
-4 -4 -2 -14 3 -24 6 -11 5 -23 -4 -36 -7 -11 -12 -44 -11 -79 1 -33 -3 -71
-8 -85 -5 -14 -10 -53 -11 -86 -1 -34 -8 -69 -15 -77 -7 -9 -11 -20 -8 -24 3
-4 0 -19 -5 -33 -6 -14 -12 -36 -14 -49 -1 -13 -10 -31 -18 -40 -9 -10 -14
-20 -11 -23 9 -8 -60 -78 -76 -78 -9 0 -4 9 11 23 31 28 53 65 45 77 -4 6 0
10 8 10 9 0 15 10 15 23 1 44 15 92 31 104 9 7 12 13 6 13 -12 0 -10 91 3 116
5 11 8 48 7 83 -1 37 3 65 9 67 6 2 10 26 9 56 -2 28 1 56 6 62 5 6 11 34 14
61 3 28 8 61 11 75 4 14 9 42 12 63 6 35 22 51 26 25z m-742 -14 c0 -8 -19
-13 -24 -6 -3 5 1 9 9 9 8 0 15 -2 15 -3z m83 -281 c3 -18 2 -33 -2 -33 -4 0
-8 16 -9 36 -2 44 4 42 11 -3z m662 -53 c3 -5 1 -10 -4 -10 -6 0 -11 5 -11 10
0 6 2 10 4 10 3 0 8 -4 11 -10z m-18 -49 c0 -11 -5 -18 -9 -15 -4 3 -5 11 -1
19 7 21 12 19 10 -4z m-635 -26 c-2 -12 1 -15 10 -9 10 6 11 5 1 -8 -7 -8 -11
-17 -8 -20 3 -2 -2 -5 -10 -5 -11 0 -12 4 -4 14 6 7 7 13 2 13 -5 0 -9 9 -10
21 -1 12 3 19 10 16 7 -2 11 -12 9 -22z m8 -59 c0 -2 -7 -6 -15 -10 -8 -3 -15
-1 -15 4 0 6 7 10 15 10 8 0 15 -2 15 -4z m17 -72 c-3 -3 -12 -4 -19 -1 -8 3
-5 6 6 6 11 1 17 -2 13 -5z m0 -31 c0 -7 -6 -13 -12 -13 -6 0 -12 6 -12 13 0
8 6 14 12 14 6 0 12 -6 12 -14z m10 -95 c-3 -7 -5 -2 -5 12 0 14 2 19 5 13 2
-7 2 -19 0 -25z m293 -204 c0 -8 -19 -13 -24 -6 -3 5 1 9 9 9 8 0 15 -2 15 -3z
m-237 -99 c-3 -9 -8 -14 -10 -11 -3 3 -2 9 2 15 9 16 15 13 8 -4z m142 -105
c-3 -5 -12 -10 -18 -10 -7 0 -6 4 3 10 19 12 23 12 15 0z m75 -25 c0 -2 -9 -3
-19 -2 -11 0 -18 5 -15 9 4 6 34 0 34 -7z"/>
<path d="M15467 6839 c-7 -5 -30 -9 -50 -11 -21 -1 -37 -5 -37 -9 0 -4 -17 -6
-37 -6 -41 0 -95 -21 -88 -34 3 -4 -5 -5 -17 -1 -11 3 -19 1 -16 -4 6 -11 -48
-65 -56 -56 -6 5 -9 -25 -3 -31 1 -1 -7 -12 -18 -24 -18 -19 -21 -35 -20 -105
1 -54 5 -83 13 -86 7 -2 9 -8 6 -13 -3 -6 0 -17 8 -26 7 -9 12 -19 11 -22 -2
-10 34 -40 41 -34 3 4 6 1 6 -5 0 -7 9 -21 20 -32 11 -11 20 -17 20 -14 0 4 7
0 16 -7 23 -19 184 -20 204 0 10 9 15 10 18 2 2 -6 8 -8 14 -5 22 14 67 9 79
-8 8 -10 20 -18 28 -18 8 0 11 -3 8 -6 -3 -4 -2 -15 3 -25 6 -10 11 -31 12
-46 1 -15 5 -32 9 -38 4 -5 7 -29 7 -53 1 -24 5 -49 10 -55 5 -7 8 -25 7 -42
-1 -16 3 -36 9 -44 5 -7 11 -18 12 -25 5 -29 10 -42 22 -54 7 -8 10 -18 7 -23
-4 -5 -2 -9 3 -9 5 0 15 -13 22 -30 7 -16 16 -28 20 -25 4 3 10 -5 13 -16 3
-12 10 -19 14 -16 5 3 21 -4 35 -17 27 -22 38 -23 200 -17 15 1 33 8 42 16 8
9 21 14 28 13 7 -2 12 3 11 10 -2 6 4 12 13 12 8 0 12 4 9 10 -3 5 3 17 14 27
11 9 18 20 15 25 -3 4 2 11 10 14 9 3 13 11 10 16 -4 6 -1 13 5 17 16 10 17
221 2 250 -7 12 -9 25 -6 30 3 5 0 22 -6 38 -6 15 -12 37 -13 48 -1 11 -5 26
-10 33 -4 7 -5 16 -2 19 3 3 1 12 -5 20 -9 10 -8 13 2 13 10 1 9 4 -3 11 -12
6 -16 19 -14 39 2 16 -1 27 -5 24 -9 -5 -13 17 -10 44 1 6 -3 12 -9 12 -5 0
-10 9 -10 20 0 11 -4 20 -10 20 -5 0 -10 7 -10 15 0 8 -5 15 -11 15 -5 0 -7 4
-4 10 3 5 -7 23 -24 39 -16 16 -27 31 -25 34 8 8 -29 47 -44 47 -7 0 -10 5 -7
10 3 6 3 10 -2 10 -4 0 -23 14 -40 31 -18 16 -33 27 -33 22 0 -4 -7 3 -16 15
-8 12 -19 20 -24 17 -5 -3 -14 1 -22 8 -7 7 -17 15 -23 16 -5 2 -15 6 -22 8
-7 3 -37 3 -67 1 -39 -3 -56 0 -56 8 0 13 -159 16 -183 3z"/>
<path d="M17396 6753 c-3 -7 -9 -13 -13 -12 -17 3 -52 -14 -57 -27 -3 -8 -13
-14 -22 -14 -10 0 -15 -3 -11 -6 3 -3 -6 -17 -21 -31 -15 -14 -27 -29 -27 -34
0 -5 -6 -13 -12 -17 -7 -5 -11 -18 -8 -30 2 -13 -2 -25 -9 -28 -13 -5 -11
-101 4 -119 4 -5 10 -21 12 -35 1 -14 11 -34 21 -44 9 -11 17 -25 17 -32 0 -6
7 -15 16 -18 8 -3 13 -10 10 -15 -3 -5 4 -7 16 -3 13 3 19 1 15 -5 -8 -12 37
-38 51 -29 5 3 13 -1 16 -9 6 -16 26 -16 38 0 5 7 8 6 8 -1 0 -13 74 -11 92 3
7 6 21 9 31 8 10 -2 21 3 24 11 3 8 9 12 13 9 4 -3 24 13 43 34 20 22 38 37
41 34 3 -3 8 6 12 21 3 14 10 26 14 26 5 0 9 8 10 18 0 9 3 45 6 80 3 34 1 68
-4 75 -5 7 -8 20 -7 30 2 9 -1 17 -6 17 -5 0 -9 5 -9 11 0 6 -13 27 -30 46
-16 18 -30 31 -30 27 0 -4 -8 3 -19 14 -10 12 -23 22 -30 22 -6 0 -11 5 -11
11 0 6 -7 9 -15 5 -8 -3 -15 -2 -15 3 0 5 -15 11 -34 13 -21 2 -32 0 -29 -6 4
-6 -1 -6 -13 -2 -33 13 -73 13 -78 -1z"/>
<path d="M14506 6235 c-8 -8 -22 -15 -30 -15 -9 0 -16 -5 -16 -11 0 -6 -6 -9
-12 -7 -14 4 -109 -88 -100 -97 3 -3 0 -5 -6 -5 -7 0 -12 -9 -12 -21 0 -11 -4
-17 -10 -14 -6 4 -10 -8 -10 -29 0 -20 -4 -36 -8 -36 -12 0 -8 -72 4 -95 6
-11 9 -26 7 -32 -3 -7 3 -13 14 -14 10 0 13 -3 6 -5 -7 -3 -9 -12 -6 -20 3 -7
9 -12 13 -9 4 3 13 -8 20 -24 6 -16 25 -35 41 -41 16 -7 26 -17 22 -23 -4 -6
0 -8 11 -4 10 4 19 1 22 -8 4 -8 13 -15 22 -15 35 0 91 -91 63 -102 -5 -1 -11
-9 -13 -17 -2 -8 -11 -24 -20 -35 -35 -42 -43 -53 -46 -67 -2 -8 -14 -24 -28
-35 -13 -12 -24 -26 -24 -31 0 -5 -9 -18 -20 -28 -16 -14 -17 -20 -8 -27 10
-6 8 -8 -4 -8 -10 0 -18 -5 -18 -11 0 -6 -7 -17 -15 -25 -8 -9 -15 -24 -15
-35 0 -10 -4 -19 -9 -19 -22 0 -35 -102 -18 -135 6 -11 10 -28 8 -37 -1 -10 3
-18 8 -18 6 0 11 -5 11 -10 0 -20 104 -120 125 -120 12 0 25 -4 31 -10 13 -13
119 -24 141 -15 10 5 20 9 23 10 32 11 54 27 103 77 33 35 55 64 51 71 -4 7
-4 9 0 6 10 -9 53 33 48 47 -2 7 7 19 19 28 13 8 20 18 16 22 -8 8 16 33 26
27 4 -2 7 -1 6 4 -4 24 3 43 15 43 16 0 29 27 20 41 -3 5 0 9 6 9 6 0 8 5 5
10 -3 6 -1 10 5 10 10 0 35 48 32 63 -1 4 4 10 11 13 9 3 12 14 9 30 -2 14 0
24 7 24 7 0 11 6 9 13 -1 6 4 23 11 35 7 13 11 26 8 28 -3 3 1 24 7 47 14 51
13 180 -2 185 -6 2 -8 10 -5 18 3 8 -9 42 -26 75 -17 33 -29 65 -25 70 5 8 -9
13 -28 10 -5 0 -8 6 -8 14 0 8 -4 15 -10 15 -5 0 -10 6 -10 13 0 14 -57 77
-71 77 -5 0 -9 7 -9 16 0 8 -4 13 -9 9 -5 -3 -20 5 -33 17 -13 13 -35 29 -50
37 -16 8 -28 18 -28 23 0 4 -6 8 -13 8 -8 0 -22 9 -31 19 -10 10 -25 18 -34
17 -9 -2 -23 4 -31 11 -10 10 -16 11 -21 3 -5 -8 -10 -7 -19 4 -6 8 -20 13
-29 11 -9 -1 -25 2 -34 6 -11 6 -22 4 -32 -6z"/>
<path d="M16610 5953 c-11 -8 -20 -11 -20 -7 0 4 -8 0 -18 -9 -10 -10 -22 -14
-25 -10 -4 3 -7 1 -7 -5 0 -7 -7 -12 -15 -12 -9 0 -18 -7 -21 -15 -4 -8 -10
-12 -15 -9 -5 3 -9 -2 -9 -10 0 -9 -7 -16 -15 -16 -8 0 -15 -9 -15 -19 0 -11
-4 -23 -10 -26 -5 -3 -10 -15 -10 -26 0 -10 -4 -19 -8 -19 -5 0 -9 -29 -10
-64 -1 -48 3 -68 17 -82 9 -11 17 -21 17 -24 -1 -11 31 -49 37 -44 3 3 3 -4 0
-17 -4 -15 -3 -20 5 -15 7 4 12 3 12 -2 0 -14 58 -71 64 -64 4 3 21 -11 40
-31 19 -20 41 -37 50 -37 9 0 16 -5 16 -11 0 -5 4 -8 8 -5 5 3 16 -4 26 -15 9
-12 24 -18 32 -15 8 3 14 -1 14 -10 0 -10 6 -14 14 -11 8 3 17 -1 20 -9 3 -8
9 -13 13 -12 11 3 86 -34 95 -46 4 -6 8 -7 8 -3 0 5 10 1 21 -7 12 -8 27 -12
34 -10 7 3 16 1 20 -5 3 -6 17 -11 30 -11 12 0 26 -8 29 -17 6 -14 9 -15 15
-4 10 16 22 16 31 1 9 -14 169 -18 178 -4 4 5 17 9 30 8 12 -1 22 3 22 7 0 5
7 9 15 9 8 0 15 5 15 11 0 5 4 8 9 4 5 -3 17 2 26 11 9 9 18 14 21 11 3 -3 18
7 34 21 15 15 47 40 69 56 22 16 43 38 46 47 4 10 15 21 26 24 10 4 17 11 13
16 -3 6 10 26 30 45 20 19 36 40 36 47 0 7 9 18 21 25 12 8 18 19 15 28 -3 8
-1 14 5 14 6 0 7 5 4 10 -4 6 -1 9 6 8 7 -2 13 2 14 9 0 6 3 15 8 19 10 11 9
122 -3 129 -5 3 -7 12 -3 20 3 8 0 15 -6 15 -6 0 -11 8 -11 18 0 10 -11 28
-25 40 -14 12 -25 27 -25 34 0 6 -3 8 -7 5 -3 -4 -16 3 -28 16 -28 29 -60 47
-85 47 -11 0 -20 4 -20 8 0 4 -29 8 -65 8 -44 0 -65 -4 -65 -12 0 -7 -8 -10
-20 -7 -11 3 -20 0 -20 -6 0 -6 -15 -19 -34 -28 -21 -10 -32 -21 -29 -29 3 -8
0 -14 -6 -14 -6 0 -11 -8 -11 -17 0 -9 -3 -14 -6 -10 -8 8 -33 -16 -27 -26 2
-4 -10 -21 -27 -37 -18 -17 -29 -30 -25 -30 5 0 0 -9 -10 -20 -18 -20 -55 -28
-55 -11 0 5 -13 14 -29 21 -16 6 -32 18 -35 26 -3 8 -12 14 -19 14 -8 0 -24 9
-37 20 -12 11 -27 17 -31 14 -5 -3 -9 -1 -9 5 0 15 -41 51 -51 45 -5 -3 -14 4
-21 16 -7 11 -20 20 -30 20 -9 0 -20 9 -23 21 -5 15 -10 17 -20 9 -9 -8 -14
-7 -19 5 -3 8 -17 15 -31 15 -14 0 -25 3 -25 8 0 13 -100 9 -120 -5z"/>
<path d="M13465 5703 c-7 -7 -27 -11 -44 -8 -18 2 -29 0 -26 -6 4 -5 1 -9 -4
-9 -6 0 -13 0 -16 0 -10 0 -45 -40 -45 -52 0 -6 -3 -9 -6 -5 -9 8 -49 -36 -46
-50 2 -7 -2 -13 -8 -13 -6 0 -8 -5 -5 -10 3 -6 0 -13 -8 -16 -11 -4 -14 -17
-12 -45 2 -25 -1 -39 -8 -39 -8 0 -7 -3 1 -9 15 -9 15 -17 1 -42 -5 -11 -2
-22 10 -35 9 -11 16 -25 13 -32 -2 -6 1 -12 8 -12 6 0 8 -5 5 -10 -3 -6 1 -13
9 -16 8 -3 18 -13 21 -22 2 -10 18 -26 34 -37 16 -10 27 -24 24 -30 -4 -5 -3
-7 2 -3 4 4 15 2 22 -4 8 -7 30 -11 48 -10 19 2 40 -4 48 -13 9 -9 17 -11 19
-4 2 6 22 13 46 16 23 3 42 10 42 16 0 6 3 7 7 4 3 -4 15 1 26 10 10 10 20 16
21 13 2 -3 19 12 39 33 20 20 34 37 30 37 -3 0 2 9 12 20 10 11 15 20 10 20
-4 0 -2 6 4 13 6 8 12 23 14 35 2 12 6 25 10 28 11 11 8 52 -3 59 -5 3 -10 19
-10 34 0 15 -3 31 -7 35 -5 4 -8 11 -8 15 0 12 -108 116 -130 126 -11 4 -27 9
-35 9 -8 0 -18 4 -21 9 -10 14 -70 14 -84 0z"/>
</g>
</svg>
